# xmcd
#
# Track frame offsets:
#	150
#	31124
#	60687
#
# Disc length: 1236 seconds
#
# Revision: 0
# Processed by: cddbd v1.5.1PL0 Copyright (c) Steve Scherf et al.
# Submitted via: EasyCDDAExtractor 8.2.1.1
#
DISCID=1c04d203
DTITLE=The Tom O'Connell Blues Band - Live '04
DYEAR=2004
DGENRE=Blues
TTITLE0=Walking to my Baby
TTITLE1=Blues Jam
TTITLE2=Hoodoo Man
EXTD=
EXTT0=
EXTT1=
EXTT2=
PLAYORDER=
